HIERARCHY
ROOT Hips
{
    OFFSET 0.0 0.0 0.0
    CHANNELS 6 Xposition Yposition Zposition Zrotation Xrotation Yrotation
    JOINT LeftHipJoint
    {
        OFFSET 0.1 0.0 0.0
        CHANNELS 3 Zrotation Xrotation Yrotation
        JOINT LeftUpLeg
        {
            OFFSET 118.21850524964503 0.0 0.0
            CHANNELS 3 Zrotation Xrotation Yrotation
            JOINT LeftLeg
            {
                OFFSET 0.0 0.0 -387.8809426835626
                CHANNELS 3 Zrotation Xrotation Yrotation
                JOINT LeftFoot
                {
                    OFFSET 0.0 0.0 -390.3738051453656
                    CHANNELS 3 Zrotation Xrotation Yrotation
                    End Site
                    {
                        OFFSET 0.0 -0.1 0.0
                    }
                }
            }
        }
    }
    JOINT LowerBack
    {
        OFFSET 0.0 0.0 0.1
        CHANNELS 3 Zrotation Xrotation Yrotation
        JOINT Spine
        {
            OFFSET 0.0 0.0 216.32494212749717
            CHANNELS 3 Zrotation Xrotation Yrotation
            JOINT Spine1
            {
                OFFSET 0.0 0.0 253.802452603918
                CHANNELS 3 Zrotation Xrotation Yrotation
                JOINT LeftShoulder
                {
                    OFFSET 0.1 0.0 0.0
                    CHANNELS 3 Zrotation Xrotation Yrotation
                    JOINT LeftArm
                    {
                        OFFSET 141.3807129151072 0.0 0.0
                        CHANNELS 3 Zrotation Xrotation Yrotation
                        JOINT LeftForeArm
                        {
                            OFFSET 254.77829741970072 0.0 0.0
                            CHANNELS 3 Zrotation Xrotation Yrotation
                            JOINT LeftHand
                            {
                                OFFSET 246.8204767931408 0.0 0.0
                                CHANNELS 3 Zrotation Xrotation Yrotation
                                End Site
                                {
                                    OFFSET 0.1 0.0 0.0
                                }
                            }
                        }
                    }
                }
                JOINT Neck
                {
                    OFFSET 0.0 0.0 0.1
                    CHANNELS 3 Zrotation Xrotation Yrotation
                    JOINT Neck1
                    {
                        OFFSET 0.0 0.0 108.99907978859041
                        CHANNELS 3 Zrotation Xrotation Yrotation
                        End Site
                        {
                            OFFSET 0.0 0.0 118.35774356185973
                        }
                    }
                }
                JOINT RightShoulder
                {
                    OFFSET -0.1 0.0 0.0
                    CHANNELS 3 Zrotation Xrotation Yrotation
                    JOINT RightArm
                    {
                        OFFSET -141.3807129151072 0.0 0.0
                        CHANNELS 3 Zrotation Xrotation Yrotation
                        JOINT RightForeArm
                        {
                            OFFSET -254.77829741970072 0.0 0.0
                            CHANNELS 3 Zrotation Xrotation Yrotation
                            JOINT RightHand
                            {
                                OFFSET -246.8204767931408 0.0 0.0
                                CHANNELS 3 Zrotation Xrotation Yrotation
                                End Site
                                {
                                    OFFSET -0.1 0.0 0.0
                                }
                            }
                        }
                    }
                }
            }
        }
    }
    JOINT RightHipJoint
    {
        OFFSET -0.1 0.0 0.0
        CHANNELS 3 Zrotation Xrotation Yrotation
        JOINT RightUpLeg
        {
            OFFSET -118.21850524964503 0.0 0.0
            CHANNELS 3 Zrotation Xrotation Yrotation
            JOINT RightLeg
            {
                OFFSET 0.0 0.0 -387.8809426835626
                CHANNELS 3 Zrotation Xrotation Yrotation
                JOINT RightFoot
                {
                    OFFSET 0.0 0.0 -390.3738051453656
                    CHANNELS 3 Zrotation Xrotation Yrotation
                    End Site
                    {
                        OFFSET 0.0 -0.1 0.0
                    }
                }
            }
        }
    }
}
MOTION
Frames: 6
Frame Time: 0.03333333333333333
0.0 0.0 780.60324064853 24.037474497082 7.1459250591952825 4.177661732170135 0.0 0.0 3.975693351829396e-16 -2.0007163929534437 -25.694571134630312 -5.243692516813478 -0.3314917276321171 27.646000274913277 0.5421448990695397 0.0 4.969616689786745e-17 0.0 0.0 0.0 3.975693351829396e-16 -0.26117613395281913 -3.589628938003703 0.25938721292280476 -2.3603094924581973 -3.8929661212852673e-16 -4.056733912162106e-16 3.1805546814635164e-15 -1.9878466759146977e-16 1.9878466759146977e-16 -23.530822970744676 5.190836345483273 70.22631027913236 -41.54317825309095 -7.710089350085423e-15 2.3906745040310822e-15 3.1805546814635176e-15 0.0 0.0 3.1805546814635164e-15 -1.9878466759146977e-16 1.9878466759146977e-16 1.9423882045838656 -6.662781608432194 -6.223800322293008 3.1805546814635164e-15 -1.9878466759146977e-16 1.9878466759146977e-16 26.673256089747085 15.016665378268373 -83.13722372168867 31.914798348783222 -1.0917950731782283e-14 1.9662013017678258e-14 0.0 0.0 -1.5902773407317584e-15 0.0 0.0 3.975693351829396e-16 -1.5527354292247608 -20.419095899545884 -5.196660977926129 -0.38653670972232707 26.97225689016201 -0.47318105627235585 0.0 0.0 0.0
0.0 0.0 780.60324064853 24.21442106116013 7.08253918762719 4.085666190223969 0.0 0.0 -1.987846675914698e-16 -2.009514822697752 -25.752127860953557 -5.108587811968426 -0.25645628953561816 27.764688176968413 0.43399294847630154 0.0 0.0 0.0 0.0 0.0 -1.987846675914698e-16 -0.2693074117737685 -3.694370924287223 0.4691782904846061 -2.198122962703437 5.790862319170757e-16 9.058051391085885e-16 0.0 0.0 2.4848083448933725e-16 -22.786243985469756 5.775614103518516 69.78946482948794 -43.09011363847761 -2.263007655340609e-15 5.731757322376129e-15 -3.1805546814635168e-15 0.0 0.0 0.0 0.0 2.4848083448933725e-16 1.6529774186818869 -6.836676183235976 -6.286030360821799 0.0 0.0 2.4848083448933725e-16 26.72735148377861 15.040610437027148 -83.31032906781029 31.44275563229901 3.4472075541324245e-15 1.2246289617153606e-14 0.0 0.0 0.0 0.0 0.0 -1.987846675914698e-16 -1.5680738716905311 -20.56967895414713 -5.150823917489819 -0.3631581545444774 27.379125953571155 -0.3809871825679564 0.0 0.0 3.975693351829396e-16
0.0 0.0 780.60324064853 24.41628295916124 6.857688181649833 3.9788976520682335 0.0 0.0 -1.987846675914698e-16 -1.9913046022529257 -25.512926118840397 -4.970306637454132 -0.18442439237503838 27.73417039943639 0.3702647099423208 0.0 0.0 -3.975693351829396e-16 0.0 0.0 -1.987846675914698e-16 -0.27596492260465993 -3.779405739567237 0.6804746149829376 -2.0799375015421533 3.758563367124784e-16 1.1997273760863847e-15 0.0 0.0 -9.93923337957349e-17 -22.23160123314219 5.963248303933809 69.00162941218984 -45.02955865033005 7.916372806082106e-15 -1.9097879543297658e-14 0.0 0.0 -3.1805546814635168e-15 0.0 0.0 -9.93923337957349e-17 1.3635702413248014 -6.8956462101006055 -6.306987178398831 0.0 0.0 -9.93923337957349e-17 27.115253783103604 14.823384030584426 -83.3061890186815 31.014476790058765 -8.680604268167658e-15 -7.49360891711082e-15 6.3611093629270335e-15 8.827812596100317e-32 1.5902773407317584e-15 0.0 0.0 -1.987846675914698e-16 -1.557668784523834 -20.41477950678644 -5.041713722639345 -0.309229855498843 27.679496097759095 -0.4017960766515017 0.0 0.0 0.0
0.0 0.0 780.60324064853 24.550844093418462 6.611709511936984 3.87147918065268 0.0 0.0 1.987846675914698e-16 -1.9572703844933093 -25.095651375794713 -4.862493987522782 -0.13140758391457802 27.571896659972314 0.41976083261592984 0.0 0.0 0.0 0.0 0.0 1.987846675914698e-16 -0.28203477131917987 -3.856235260052528 0.8165200204143721 -2.068196509587942 -1.8440207483422502e-16 -7.985967217422709e-16 1.7241821476758432e-34 1.987846675914698e-16 -9.93923337957349e-17 -22.060160034558443 5.781795298438917 68.15259479030878 -47.278161861307574 -3.3122099620143897e-15 -3.647969997798778e-16 0.0 0.0 7.951386703658792e-16 1.7241821476758432e-34 1.987846675914698e-16 -9.93923337957349e-17 1.3759756250238566 -6.999962991157114 -6.24526376532291 1.7241821476758432e-34 1.987846675914698e-16 -9.93923337957349e-17 27.554212519316128 14.5712765874529 -83.10205568562404 31.067416806238413 5.619686540638628e-15 8.341367034411085e-15 0.0 0.0 -1.5902773407317584e-15 0.0 0.0 1.987846675914698e-16 -1.5370200292782321 -20.13813926637424 -4.870083811851753 -0.22210443505034913 27.936862616895432 -0.43761506860695265 0.0 0.0 0.0
0.0 0.0 780.60324064853 24.656328140114244 6.509170841182648 3.721755648475397 0.0 0.0 0.0 -1.9234343586424696 -25.009705365897208 -4.693638355203858 -0.07749274537519643 27.648384216193293 0.4977119061915819 0.0 0.0 3.975693351829396e-16 0.0 0.0 0.0 -0.2781844681342835 -3.8555134575277688 0.9880578991436004 -2.146664059335663 -2.0433526477338533e-16 2.9440103225992046e-16 0.0 0.0 9.93923337957349e-17 -21.83831727758785 5.028281280536598 67.06922155551086 -48.97364137310377 9.063235312890865e-16 -1.9899583636436385e-15 0.0 0.0 -3.1805546814635168e-15 0.0 0.0 9.93923337957349e-17 1.5107823079874425 -7.230922205074007 -6.187251166752668 0.0 0.0 9.93923337957349e-17 27.57485334178738 14.098171805440005 -82.82898868610644 31.003898081685556 -1.3647093815987199e-15 6.979771394012407e-15 0.0 0.0 1.5902773407317584e-15 0.0 0.0 0.0 -1.5144947508084992 -20.116834371495194 -4.656621128302569 -0.1429379415672996 28.280226263282096 -0.48489659828535714 0.0 -1.5902773407317584e-15 0.0
0.0 0.0 780.60324064853 24.5338345364223 6.4229301114635335 3.62528347668227 0.0 0.0 -3.975693351829396e-16 -1.9355117978105778 -24.888253035799018 -4.679369503540186 -0.04456431754940746 27.72411785093882 0.630411789078587 -3.1805546814635168e-15 -4.969616689786744e-17 -3.975693351829396e-16 0.0 0.0 -3.975693351829396e-16 -0.28639431730367854 -3.9228848101814213 1.1276070144512846 -2.1504996868246278 1.8942390561063318e-16 5.006044631110821e-16 0.0 0.0 -3.4787316828507215e-16 -20.870072742614557 4.701270235718636 66.28101617296576 -50.85358870066291 -1.402094616735831e-14 -7.546092771868027e-15 0.0 0.0 0.0 0.0 0.0 -3.4787316828507215e-16 1.7032391748197127 -7.371640742309802 -6.082485098172781 0.0 0.0 -3.4787316828507215e-16 27.54428265776245 14.264160685618918 -82.78875078947917 31.359069801732694 -1.3967935441103202e-14 -2.686138706165971e-15 0.0 0.0 3.1805546814635168e-15 0.0 0.0 -3.975693351829396e-16 -1.5304834577769713 -20.096656947187718 -4.5679246310773305 -0.06841605678529461 28.491980405267437 -0.42134343628302173 0.0 0.0 -3.975693351829396e-16
